<svg xmlns="http://www.w3.org/2000/svg" xmlns:xlink="http://www.w3.org/1999/xlink" width="210" zoomAndPan="magnify" viewBox="0 0 157.5 195.000001" height="260" preserveAspectRatio="xMidYMid meet" version="1.0">
  <defs>
    <g/>
    <clipPath id="34ae15e7f6">
      <path d="M 0.152344 0 L 156.847656 0 L 156.847656 194.003906 L 0.152344 194.003906 Z M 0.152344 0 " clip-rule="nonzero"/>
    </clipPath>
    <clipPath id="e8013ee877">
      <path d="M 40 85 L 118 85 L 118 131.234375 L 40 131.234375 Z M 40 85 " clip-rule="nonzero"/>
    </clipPath>
    <clipPath id="fbc8b2cf86">
      <path d="M 40 80 L 118.160156 80 L 118.160156 89 L 40 89 Z M 40 80 " clip-rule="nonzero"/>
    </clipPath>
    <clipPath id="d6c0bc2265">
      <path d="M 39.066406 62.585938 L 118 62.585938 L 118 81 L 39.066406 81 Z M 39.066406 62.585938 " clip-rule="nonzero"/>
    </clipPath>
    <clipPath id="d2af1c9f02">
      <path d="M 39.066406 71 L 49 71 L 49 80 L 39.066406 80 Z M 39.066406 71 " clip-rule="nonzero"/>
    </clipPath>
    <clipPath id="74e07d838f">
      <path d="M 39.066406 88 L 118.160156 88 L 118.160156 89 L 39.066406 89 Z M 39.066406 88 " clip-rule="nonzero"/>
    </clipPath>
  </defs>
  <g clip-path="url(#34ae15e7f6)">
    <path fill="#ffffff" d="M 0.152344 0 L 156.847656 0 L 156.847656 194.003906 L 0.152344 194.003906 Z M 0.152344 0 " fill-opacity="1" fill-rule="nonzero"/>
    <path fill="#5e17eb" d="M 0.152344 0 L 156.847656 0 L 156.847656 194.003906 L 0.152344 194.003906 Z M 0.152344 0 " fill-opacity="1" fill-rule="nonzero"/>
  </g>
  <path fill="#000000" d="M 40.101562 73.847656 L 40.101562 85.390625 C 40.101562 85.613281 40.144531 85.828125 40.234375 86.039062 C 40.320312 86.246094 40.445312 86.429688 40.605469 86.585938 C 40.765625 86.746094 40.949219 86.867188 41.160156 86.953125 C 41.371094 87.039062 41.589844 87.082031 41.816406 87.082031 L 46.550781 87.082031 C 46.777344 87.082031 46.996094 87.039062 47.207031 86.953125 C 47.417969 86.867188 47.601562 86.746094 47.765625 86.585938 C 47.925781 86.429688 48.046875 86.246094 48.136719 86.039062 C 48.222656 85.828125 48.265625 85.613281 48.265625 85.390625 L 48.265625 73.847656 C 48.265625 73.621094 48.222656 73.40625 48.136719 73.199219 C 48.046875 72.988281 47.925781 72.808594 47.765625 72.648438 C 47.601562 72.488281 47.417969 72.367188 47.207031 72.28125 C 46.996094 72.195312 46.777344 72.152344 46.550781 72.152344 L 41.816406 72.152344 C 41.589844 72.152344 41.371094 72.195312 41.160156 72.28125 C 40.949219 72.367188 40.765625 72.488281 40.605469 72.648438 C 40.445312 72.808594 40.320312 72.988281 40.234375 73.199219 C 40.144531 73.40625 40.101562 73.621094 40.101562 73.847656 " fill-opacity="1" fill-rule="evenodd"/>
  <g clip-path="url(#e8013ee877)">
    <path fill="#000000" d="M 41.851562 85.265625 L 116.28125 85.265625 C 116.476562 85.265625 116.667969 85.304688 116.847656 85.378906 C 117.027344 85.453125 117.1875 85.558594 117.328125 85.699219 C 117.464844 85.835938 117.570312 85.992188 117.644531 86.171875 C 117.722656 86.355469 117.757812 86.542969 117.757812 86.734375 L 117.757812 129.769531 C 117.757812 129.960938 117.722656 130.148438 117.644531 130.328125 C 117.570312 130.507812 117.464844 130.667969 117.328125 130.804688 C 117.1875 130.945312 117.027344 131.050781 116.847656 131.125 C 116.667969 131.199219 116.476562 131.234375 116.28125 131.234375 L 41.851562 131.234375 C 41.65625 131.234375 41.464844 131.199219 41.285156 131.125 C 41.105469 131.050781 40.945312 130.945312 40.808594 130.804688 C 40.667969 130.667969 40.5625 130.507812 40.488281 130.328125 C 40.410156 130.148438 40.375 129.960938 40.375 129.769531 L 40.375 86.734375 C 40.375 86.542969 40.410156 86.355469 40.488281 86.175781 C 40.5625 85.992188 40.667969 85.835938 40.808594 85.699219 C 40.945312 85.558594 41.105469 85.453125 41.285156 85.378906 C 41.464844 85.304688 41.65625 85.265625 41.851562 85.265625 " fill-opacity="1" fill-rule="evenodd"/>
  </g>
  <g clip-path="url(#fbc8b2cf86)">
    <path fill="#000000" d="M 40.011719 80.089844 L 118.117188 80.089844 L 118.117188 88.160156 L 40.011719 88.160156 Z M 40.011719 80.089844 " fill-opacity="1" fill-rule="evenodd"/>
  </g>
  <path fill="#ffffff" d="M 48.296875 87.710938 L 55.769531 87.710938 L 59.703125 80.542969 L 52.230469 80.542969 Z M 48.296875 87.710938 " fill-opacity="1" fill-rule="evenodd"/>
  <path fill="#ffffff" d="M 67.433594 87.710938 L 74.90625 87.710938 L 78.839844 80.542969 L 71.367188 80.542969 Z M 67.433594 87.710938 " fill-opacity="1" fill-rule="evenodd"/>
  <path fill="#ffffff" d="M 86.570312 87.710938 L 94.042969 87.710938 L 97.976562 80.542969 L 90.503906 80.542969 Z M 86.570312 87.710938 " fill-opacity="1" fill-rule="evenodd"/>
  <path fill="#ffffff" d="M 105.707031 87.710938 L 113.179688 87.710938 L 117.113281 80.542969 L 109.640625 80.542969 Z M 105.707031 87.710938 " fill-opacity="1" fill-rule="evenodd"/>
  <g clip-path="url(#d6c0bc2265)">
    <path fill="#000000" d="M 116.609375 62.585938 L 39.101562 72.121094 L 40.109375 80.128906 L 117.617188 70.59375 Z M 116.609375 62.585938 " fill-opacity="1" fill-rule="evenodd"/>
  </g>
  <path fill="#ffffff" d="M 116.574219 70.269531 L 109.160156 71.179688 L 104.359375 64.550781 L 111.777344 63.636719 Z M 116.574219 70.269531 " fill-opacity="1" fill-rule="evenodd"/>
  <path fill="#ffffff" d="M 97.585938 72.605469 L 90.167969 73.515625 L 85.371094 66.882812 L 92.785156 65.972656 Z M 97.585938 72.605469 " fill-opacity="1" fill-rule="evenodd"/>
  <path fill="#ffffff" d="M 78.59375 74.941406 L 71.179688 75.851562 L 66.378906 69.21875 L 73.796875 68.308594 Z M 78.59375 74.941406 " fill-opacity="1" fill-rule="evenodd"/>
  <path fill="#ffffff" d="M 59.605469 77.277344 L 52.1875 78.1875 L 47.390625 71.554688 L 54.808594 70.644531 Z M 59.605469 77.277344 " fill-opacity="1" fill-rule="evenodd"/>
  <path fill="#ffffff" d="M 45.761719 75.164062 C 45.789062 75.378906 45.777344 75.589844 45.71875 75.796875 C 45.664062 76.003906 45.570312 76.195312 45.4375 76.363281 C 45.304688 76.535156 45.140625 76.671875 44.953125 76.777344 C 44.765625 76.886719 44.5625 76.953125 44.34375 76.980469 C 44.128906 77.003906 43.917969 76.988281 43.707031 76.933594 C 43.496094 76.875 43.308594 76.78125 43.136719 76.648438 C 42.964844 76.515625 42.824219 76.351562 42.71875 76.164062 C 42.613281 75.976562 42.546875 75.777344 42.523438 75.5625 C 42.492188 75.351562 42.507812 75.140625 42.5625 74.933594 C 42.621094 74.722656 42.714844 74.535156 42.847656 74.363281 C 42.980469 74.195312 43.140625 74.054688 43.332031 73.949219 C 43.519531 73.84375 43.722656 73.777344 43.9375 73.75 C 44.15625 73.722656 44.367188 73.738281 44.578125 73.796875 C 44.789062 73.855469 44.976562 73.949219 45.148438 74.082031 C 45.320312 74.214844 45.457031 74.375 45.566406 74.5625 C 45.671875 74.75 45.738281 74.953125 45.761719 75.164062 Z M 45.761719 75.164062 " fill-opacity="1" fill-rule="evenodd"/>
  <g clip-path="url(#d2af1c9f02)">
    <path stroke-linecap="butt" transform="matrix(0.113406, -0.0139491, 0.0141117, 0.112099, 29.134106, 58.076831)" fill="none" stroke-linejoin="miter" d="M 125.706399 168.071723 C 125.708987 169.988593 125.376648 171.82894 124.641543 173.584323 C 123.940358 175.343926 122.917056 176.924061 121.580178 178.256098 C 120.23903 179.62245 118.664954 180.6462 116.92152 181.370106 C 115.173817 182.128327 113.337404 182.4922 111.408013 182.496039 C 109.516812 182.469784 107.70223 182.104601 105.930348 181.396267 C 104.162736 180.653619 102.637072 179.62746 101.289787 178.275035 C 99.942502 176.922609 98.900734 175.329431 98.189863 173.568349 C 97.478992 171.807268 97.120127 169.98545 97.151459 168.0728 C 97.110681 166.186025 97.47694 164.349898 98.178125 162.590295 C 98.9175 160.800598 99.936531 159.254778 101.27768 157.888426 C 102.614558 156.556389 104.158984 155.494103 105.936337 154.774418 C 107.679771 154.050512 109.516183 153.686639 111.411655 153.678579 C 113.341046 153.674739 115.155628 154.039923 116.923239 154.782572 C 118.690851 155.52522 120.216515 156.551379 121.563801 157.903804 C 122.911086 159.256229 123.923204 160.810872 124.667995 162.576174 C 125.378866 164.337256 125.733461 166.193389 125.706399 168.071723 Z M 125.706399 168.071723 " stroke="#ffffff" stroke-width="4" stroke-opacity="1" stroke-miterlimit="4"/>
  </g>
  <g clip-path="url(#74e07d838f)">
    <path stroke-linecap="butt" transform="matrix(0.164741, 0, 0, 0.163838, 17.289581, 16.234347)" fill="none" stroke-linejoin="miter" d="M 137.855578 439.078244 L 612.038365 439.078244 " stroke="#cccccc" stroke-width="0.692" stroke-opacity="1" stroke-miterlimit="4"/>
  </g>
  <path stroke-linecap="butt" transform="matrix(0.114281, 0, 0, 0.112964, 31.591873, 48.086012)" fill="none" stroke-linejoin="miter" d="M 104.132407 618.349573 L 726.709053 618.349573 " stroke="#ffffff" stroke-width="4" stroke-opacity="1" stroke-miterlimit="4"/>
  <path stroke-linecap="butt" transform="matrix(0.114281, 0, 0, 0.112964, 29.216806, 48.086012)" fill="none" stroke-linejoin="miter" d="M 307.955574 713.166503 L 307.955574 619.317798 " stroke="#ffffff" stroke-width="4" stroke-opacity="1" stroke-miterlimit="4"/>
  <path stroke-linecap="butt" transform="matrix(0.114281, 0, 0, 0.112964, 29.216806, 48.086012)" fill="none" stroke-linejoin="miter" d="M 564.417229 713.166503 L 564.417229 619.317798 " stroke="#ffffff" stroke-width="4" stroke-opacity="1" stroke-miterlimit="4"/>
  <path stroke-linecap="butt" transform="matrix(0.114281, 0, 0, 0.112964, 31.591873, 48.086012)" fill="none" stroke-linejoin="miter" d="M 104.132407 524.500868 L 726.709053 524.500868 " stroke="#ffffff" stroke-width="4" stroke-opacity="1" stroke-miterlimit="4"/>
  <path stroke-linecap="butt" transform="matrix(0.114281, 0, 0, 0.112964, 31.591873, 48.086012)" fill="none" stroke-linejoin="miter" d="M 104.132407 430.617583 L 726.709053 430.617583 " stroke="#ffffff" stroke-width="4" stroke-opacity="1" stroke-miterlimit="4"/>
  <g fill="#5e17eb" fill-opacity="1">
    <g transform="translate(51.918843, 126.949669)">
      <g>
        <path d="M 22.609375 -34.484375 C 23.066406 -34.648438 23.4375 -34.734375 23.71875 -34.734375 C 23.757812 -34.734375 23.847656 -34.722656 23.984375 -34.703125 C 24.128906 -34.691406 24.375 -34.507812 24.71875 -34.15625 C 25.351562 -33.53125 25.695312 -32.988281 25.75 -32.53125 C 25.800781 -32.070312 25.847656 -31.5625 25.890625 -31 C 25.953125 -30.226562 25.984375 -29.207031 25.984375 -27.9375 C 25.984375 -27.300781 25.984375 -26.6875 25.984375 -26.09375 C 25.984375 -24.300781 25.953125 -22.738281 25.890625 -21.40625 C 25.785156 -19.332031 25.675781 -17.238281 25.5625 -15.125 C 25.53125 -14.78125 25.476562 -14.289062 25.40625 -13.65625 C 25.0625 -10.738281 24.890625 -8.925781 24.890625 -8.21875 C 24.890625 -8.1875 24.894531 -8.148438 24.90625 -8.109375 C 24.925781 -8.078125 24.9375 -8.023438 24.9375 -7.953125 C 24.9375 -7.390625 24.863281 -6.8125 24.71875 -6.21875 C 24.65625 -6.113281 24.625 -6.023438 24.625 -5.953125 C 24.476562 -5.671875 24.316406 -5.46875 24.140625 -5.34375 C 23.960938 -5.226562 23.734375 -5.132812 23.453125 -5.0625 C 23.210938 -5.03125 23.019531 -5.015625 22.875 -5.015625 C 22.769531 -5.015625 22.65625 -5.019531 22.53125 -5.03125 C 22.414062 -5.050781 22.144531 -5.164062 21.71875 -5.375 C 21.40625 -5.550781 21.125 -5.726562 20.875 -5.90625 C 20.625 -6.082031 20.304688 -6.378906 19.921875 -6.796875 C 19.535156 -7.222656 19.210938 -7.671875 18.953125 -8.140625 C 18.691406 -8.617188 18.296875 -9.347656 17.765625 -10.328125 C 17.234375 -11.316406 16.695312 -12.363281 16.15625 -13.46875 C 15.613281 -14.570312 14.882812 -16.054688 13.96875 -17.921875 C 13.269531 -19.148438 12.59375 -20.394531 11.9375 -21.65625 C 11.289062 -22.925781 10.71875 -23.945312 10.21875 -24.71875 C 9.726562 -25.5 9.429688 -25.890625 9.328125 -25.890625 C 9.222656 -25.742188 9.171875 -21.820312 9.171875 -14.125 C 9.203125 -12.820312 9.21875 -11.734375 9.21875 -10.859375 C 9.21875 -9.984375 9.203125 -9.316406 9.171875 -8.859375 C 9.066406 -8.148438 9.015625 -7.742188 9.015625 -7.640625 C 8.941406 -7.148438 8.570312 -6.570312 7.90625 -5.90625 C 7.625 -5.65625 7.367188 -5.503906 7.140625 -5.453125 C 6.910156 -5.398438 6.601562 -5.375 6.21875 -5.375 C 5.695312 -5.375 5.351562 -5.4375 5.1875 -5.5625 C 5.03125 -5.6875 4.847656 -5.992188 4.640625 -6.484375 C 4.429688 -6.898438 4.1875 -7.269531 3.90625 -7.59375 C 3.65625 -7.875 3.492188 -8.320312 3.421875 -8.9375 C 3.359375 -9.550781 3.328125 -9.945312 3.328125 -10.125 C 3.285156 -10.582031 3.265625 -11.003906 3.265625 -11.390625 C 3.265625 -11.804688 3.285156 -12.207031 3.328125 -12.59375 C 3.609375 -14.632812 3.78125 -16.550781 3.84375 -18.34375 C 3.882812 -19.644531 3.90625 -21.347656 3.90625 -23.453125 C 3.90625 -24.515625 3.894531 -26.3125 3.875 -28.84375 C 3.851562 -31.375 3.84375 -32.8125 3.84375 -33.15625 C 3.84375 -33.71875 3.96875 -34.050781 4.21875 -34.15625 C 4.5 -34.300781 4.816406 -34.375 5.171875 -34.375 C 5.234375 -34.375 5.300781 -34.375 5.375 -34.375 C 5.476562 -34.375 5.679688 -34.363281 5.984375 -34.34375 C 6.285156 -34.320312 6.679688 -34.191406 7.171875 -33.953125 C 8.253906 -33.421875 9.691406 -31.847656 11.484375 -29.234375 C 13.285156 -26.617188 15.378906 -23.566406 17.765625 -20.078125 C 19.066406 -18.222656 19.925781 -17.082031 20.34375 -16.65625 C 20.445312 -17.394531 20.535156 -20.191406 20.609375 -25.046875 C 20.679688 -29.296875 20.820312 -31.6875 21.03125 -32.21875 C 21.238281 -32.707031 21.445312 -33.175781 21.65625 -33.625 C 21.875 -34.082031 22.109375 -34.3125 22.359375 -34.3125 C 22.359375 -34.3125 22.375 -34.3125 22.40625 -34.3125 C 22.40625 -34.351562 22.472656 -34.410156 22.609375 -34.484375 Z M 22.515625 -34.265625 C 22.546875 -34.265625 22.597656 -34.265625 22.671875 -34.265625 C 22.597656 -34.265625 22.523438 -34.265625 22.453125 -34.265625 Z M 22.515625 -34.265625 "/>
      </g>
    </g>
  </g>
  <g fill="#5e17eb" fill-opacity="1">
    <g transform="translate(81.126747, 126.949669)">
      <g>
        <path d="M 9.28125 -34.90625 C 10.226562 -35.070312 11.492188 -35.15625 13.078125 -35.15625 C 13.492188 -35.15625 14.351562 -35.140625 15.65625 -35.109375 C 16.957031 -35.078125 18.015625 -34.921875 18.828125 -34.640625 C 20.296875 -34.109375 21.566406 -33.242188 22.640625 -32.046875 C 23.710938 -30.859375 24.335938 -29.5625 24.515625 -28.15625 C 24.585938 -27.90625 24.625 -27.65625 24.625 -27.40625 C 24.625 -27.34375 24.625 -27.257812 24.625 -27.15625 C 24.625 -26.625 24.535156 -25.960938 24.359375 -25.171875 C 24.179688 -24.378906 23.878906 -23.632812 23.453125 -22.9375 C 22.503906 -21.28125 21.007812 -19.96875 18.96875 -19 C 16.9375 -18.039062 14.898438 -17.5625 12.859375 -17.5625 C 12.648438 -17.5625 12.441406 -17.5625 12.234375 -17.5625 C 11.066406 -17.625 10.378906 -17.691406 10.171875 -17.765625 C 10.140625 -17.796875 10.085938 -17.8125 10.015625 -17.8125 C 10.015625 -17.75 10.015625 -17.679688 10.015625 -17.609375 C 10.015625 -17.429688 9.960938 -17.34375 9.859375 -17.34375 C 9.828125 -17.34375 9.773438 -17.359375 9.703125 -17.390625 C 9.628906 -17.390625 9.539062 -16.25 9.4375 -13.96875 C 9.363281 -12.382812 9.28125 -11.257812 9.1875 -10.59375 C 9.101562 -9.925781 8.941406 -9.171875 8.703125 -8.328125 C 8.347656 -7.171875 8.03125 -6.441406 7.75 -6.140625 C 7.46875 -5.835938 7.046875 -5.6875 6.484375 -5.6875 C 6.410156 -5.6875 6.34375 -5.6875 6.28125 -5.6875 C 5.601562 -5.726562 5.109375 -5.890625 4.796875 -6.171875 C 4.546875 -6.410156 4.40625 -6.785156 4.375 -7.296875 C 4.34375 -7.804688 4.304688 -9.398438 4.265625 -12.078125 C 4.234375 -13.265625 4.21875 -14.316406 4.21875 -15.234375 C 4.21875 -17.097656 4.269531 -18.4375 4.375 -19.25 C 4.519531 -21.070312 4.609375 -23.300781 4.640625 -25.9375 L 4.6875 -30.109375 L 3.6875 -30 C 3.375 -29.957031 3.128906 -29.9375 2.953125 -29.9375 C 2.878906 -29.9375 2.789062 -29.945312 2.6875 -29.96875 C 2.582031 -29.988281 2.390625 -30.117188 2.109375 -30.359375 C 1.648438 -30.785156 1.421875 -31.175781 1.421875 -31.53125 C 1.421875 -31.664062 1.488281 -31.863281 1.625 -32.125 C 1.769531 -32.394531 2.476562 -32.773438 3.75 -33.265625 C 4.59375 -33.617188 5.082031 -33.882812 5.21875 -34.0625 C 5.289062 -34.164062 5.726562 -34.285156 6.53125 -34.421875 C 7.09375 -34.492188 8.007812 -34.65625 9.28125 -34.90625 Z M 15.8125 -31 C 15.425781 -31.175781 14.847656 -31.289062 14.078125 -31.34375 C 13.304688 -31.394531 12.726562 -31.421875 12.34375 -31.421875 C 11.78125 -31.421875 11.300781 -31.382812 10.90625 -31.3125 L 9.96875 -31.203125 L 9.90625 -28 C 9.90625 -27.4375 9.894531 -26.53125 9.875 -25.28125 C 9.863281 -24.03125 9.859375 -23.226562 9.859375 -22.875 L 9.859375 -20.875 L 11.015625 -20.921875 C 12.285156 -20.921875 13.648438 -21.445312 15.109375 -22.5 C 16.566406 -23.5625 17.453125 -24.640625 17.765625 -25.734375 C 17.972656 -26.359375 18.078125 -26.832031 18.078125 -27.15625 C 18.078125 -27.1875 18.066406 -27.296875 18.046875 -27.484375 C 18.035156 -27.679688 17.957031 -28.097656 17.8125 -28.734375 C 17.675781 -29.222656 17.429688 -29.675781 17.078125 -30.09375 C 16.722656 -30.519531 16.300781 -30.820312 15.8125 -31 Z M 15.8125 -31 "/>
      </g>
    </g>
  </g>
</svg>