<?xml version="1.0" encoding="UTF-8"?>
<!DOCTYPE svg PUBLIC "-//W3C//DTD SVG 1.1//EN" "http://www.w3.org/Graphics/SVG/1.1/DTD/svg11.dtd">
<svg xmlns="http://www.w3.org/2000/svg" version="1.1" width="512px" height="512px" style="shape-rendering:geometricPrecision; text-rendering:geometricPrecision; image-rendering:optimizeQuality; fill-rule:evenodd; clip-rule:evenodd" xmlns:xlink="http://www.w3.org/1999/xlink">
  <g>
    <path style="opacity:0.968" fill="#000000" d="M 445.5,-0.5 C 447.167,-0.5 448.833,-0.5 450.5,-0.5C 459.16,28.4816 467.827,57.4816 476.5,86.5C 476.182,87.6473 475.516,88.4806 474.5,89C 463.804,92.0655 453.137,95.2321 442.5,98.5C 412.429,75.9386 382.763,52.7719 353.5,29C 384.228,19.1555 414.895,9.32212 445.5,-0.5 Z"/>
  </g>
  <g>
    <path style="opacity:0.97" fill="#000000" d="M 311.5,40.5 C 313.655,40.372 315.655,40.872 317.5,42C 345.873,64.8441 374.206,87.6774 402.5,110.5C 374.708,119.264 346.875,127.93 319,136.5C 289.08,113.752 259.58,90.4184 230.5,66.5C 257.588,57.803 284.588,49.1363 311.5,40.5 Z"/>
  </g>
  <g>
    <path style="opacity:0.97" fill="#000000" d="M 190.5,77.5 C 220.47,100.501 250.137,124.001 279.5,148C 252.905,156.531 226.239,164.865 199.5,173C 197.5,173.667 195.5,173.667 193.5,173C 164.833,150 136.167,127 107.5,104C 135.3,95.2319 162.967,86.3986 190.5,77.5 Z"/>
  </g>
  <g>
    <path style="opacity:0.994" fill="#000000" d="M 468.5,511.5 C 335.5,511.5 202.5,511.5 69.5,511.5C 56.0855,507.25 47.5855,498.25 44,484.5C 43.6667,395.833 43.3333,307.167 43,218.5C 34.0637,189.858 25.2303,161.192 16.5,132.5C 16.7093,131.914 17.0426,131.414 17.5,131C 34.7446,125.359 52.0779,120.359 69.5,116C 98.6686,139.007 127.669,162.174 156.5,185.5C 120.678,197.163 84.6775,208.329 48.5,219C 197.166,219.5 345.833,219.667 494.5,219.5C 494.667,307.834 494.5,396.167 494,484.5C 490.414,498.25 481.914,507.25 468.5,511.5 Z M 216.5,306.5 C 251.057,325.711 285.39,345.378 319.5,365.5C 285.415,385.626 251.249,405.626 217,425.5C 216.5,385.835 216.333,346.168 216.5,306.5 Z"/>
  </g>
</svg>
