<?xml version="1.0" standalone="no"?>
<!DOCTYPE svg PUBLIC "-//W3C//DTD SVG 20010904//EN"
 "http://www.w3.org/TR/2001/REC-SVG-20010904/DTD/svg10.dtd">
<svg version="1.0" xmlns="http://www.w3.org/2000/svg"
 width="210.000000pt" height="260.000000pt" viewBox="0 0 210.000000 260.000000"
 preserveAspectRatio="xMidYMid meet">

<g transform="translate(0.000000,260.000000) scale(0.100000,-0.100000)"
fill="#000000" stroke="none">
<path d="M0 1300 l0 -1300 1050 0 1050 0 0 1300 0 1300 -1050 0 -1050 0 0
-1300z m1931 639 c-9 -4 -48 -10 -87 -14 l-71 -7 -52 71 c-28 39 -51 75 -51
80 0 5 37 13 83 18 l82 8 56 -75 c46 -61 53 -76 40 -81z m-489 24 l56 -78 -37
-6 c-20 -4 -59 -9 -88 -10 l-52 -4 -55 75 c-30 41 -51 76 -47 78 9 3 121 19
147 21 15 1 36 -20 76 -76z m-449 -60 c28 -40 49 -75 46 -77 -2 -2 -42 -7 -89
-10 l-85 -7 -46 68 c-26 37 -48 73 -50 78 -5 12 66 23 130 21 42 -1 45 -3 94
-73z m-455 -50 c29 -41 51 -77 49 -79 -7 -8 -157 -25 -167 -19 -17 10 -111
150 -103 152 13 5 125 20 148 21 14 1 36 -22 73 -75z m-280 -5 c35 -35 -15
-99 -53 -68 -18 15 -20 66 -2 73 22 9 43 7 55 -5z m332 -164 c0 -4 -19 -42
-42 -85 l-43 -79 -88 0 -87 0 21 43 c12 23 33 61 46 85 l25 42 84 0 c46 0 84
-3 84 -6z m417 -76 l-45 -83 -86 -3 c-47 -1 -86 0 -86 4 0 4 19 42 42 85 l42
79 89 0 89 0 -45 -82z m493 76 c0 -4 -19 -42 -42 -85 l-43 -79 -87 0 c-49 0
-88 2 -88 4 0 5 9 21 64 119 l27 47 84 0 c47 0 85 -3 85 -6z m417 -76 l-45
-83 -86 -3 c-47 -1 -86 0 -86 4 0 4 19 42 42 85 l42 79 89 0 89 0 -45 -82z
m-434 -305 c-232 -2 -614 -2 -850 0 -235 1 -45 2 422 2 468 0 660 -1 428 -2z
m-865 -250 c-76 -2 -200 -2 -275 0 -76 1 -14 3 137 3 151 0 213 -2 138 -3z
m245 0 c-7 -2 -21 -2 -30 0 -10 3 -4 5 12 5 17 0 24 -2 18 -5z m100 0 c-7 -2
-19 -2 -25 0 -7 3 -2 5 12 5 14 0 19 -2 13 -5z m165 0 c-15 -2 -42 -2 -60 0
-18 2 -6 4 27 4 33 0 48 -2 33 -4z m640 0 c-76 -2 -200 -2 -275 0 -76 1 -14 3
137 3 151 0 213 -2 138 -3z m-110 -260 l-248 -3 -2 -128 -2 -127 -3 128 -4
127 -339 0 -340 0 -2 -122 -2 -123 -3 122 -4 123 -247 3 c-136 1 133 2 598 2
465 0 734 -1 598 -2z"/>
</g>
</svg>
